# xmcd
#
# Track frame offsets:
#	150
#	11000
#	18752
#	32462
#	41157
#	55360
#	62920
#	74030
#	85090
#	94642
#	110697
#	119847
#	134325
#	144750
#	152412
#	170855
#	184397
#	197897
#	217027
#	231010
#	243462
#	260147
#	277520
#
# Disc length: 3823 seconds
#
# Revision: 2
# Processed by: cddbd v1.5.1PL0 Copyright (c) Steve Scherf et al.
# Submitted via: EasyCDDAExtractor 7.0.6.1
#
DISCID=540eed17
DTITLE=Shostakovich - Ballet Suites 1 and 3 - Suites 1 and 2 for Jazz Orhcestra
DYEAR=1997
DGENRE=Blues
TTITLE0=Ballet Suite 1 - 1. Lyric Waltz
TTITLE1=Ballet Suite 1 - 2. Dance
TTITLE2=Ballet Suite 1 - 3. Romance
TTITLE3=Ballet Suite 1 - 4. Polka
TTITLE4=Ballet Suite 1 - 5. Scherzo - Waltz
TTITLE5=Ballet Suite 1 - 6. Galop
TTITLE6=Ballet Suite 3 - 1. Waltz
TTITLE7=Ballet Suite 3 - 2. Gavotte
TTITLE8=Ballet Suite 3 - 3. Dance
TTITLE9=Ballet Suite 3 - 4. Elegie
TTITLE10=Ballet Suite 3 - 5. Waltz
TTITLE11=Ballet Suite 3 - 6. Galop
TTITLE12=Suite 1 for Jazz Orchestra - 1. Waltz
TTITLE13=Suite 1 for Jazz Orchestra - 2. Polka
TTITLE14=Suite 1 for Jazz Orchestra - 3. Foxtrot
TTITLE15=Suite 2 for Jazz Orchestra - 1. March
TTITLE16=Suite 2 for Jazz Orchestra - 2. Dance I
TTITLE17=Suite 2 for Jazz Orchestra - 3. Dance II
TTITLE18=Suite 2 for Jazz Orchestra - 4. Little Polka
TTITLE19=Suite 2 for Jazz Orchestra - 5. Lyric Waltz
TTITLE20=Suite 2 for Jazz Orchestra - 6. Waltz I
TTITLE21=Suite 2 for Jazz Orchestra - 7. Waltz II
TTITLE22=Suite 2 for Jazz Orchestra - 8. Finale
EXTD=
EXTT0=
EXTT1=
EXTT2=
EXTT3=
EXTT4=
EXTT5=
EXTT6=
EXTT7=
EXTT8=
EXTT9=
EXTT10=
EXTT11=
EXTT12=
EXTT13=
EXTT14=
EXTT15=
EXTT16=
EXTT17=
EXTT18=
EXTT19=
EXTT20=
EXTT21=
EXTT22=
PLAYORDER=
